<?xml version="1.0" encoding="UTF-8"?>
<svg width="254px" height="89px" viewBox="0 0 254 89" version="1.1"
    xmlns="http://www.w3.org/2000/svg" xmlns:xlink="http://www.w3.org/1999/xlink">
    <title>Artboard</title>
    <g id="Artboard" stroke="none" stroke-width="1" fill="none" fill-rule="evenodd">
        <g id="logo-dark" transform="translate(0.176300, 0.111562)" fill="#FFFFFF"
            fill-rule="nonzero">
            <path
                d="M91.8477,44.1961382 C92.4327,44.1457382 93.0207,44.2571382 93.5467,44.5182382 C94.0737,44.7792382 94.5177,45.1798382 94.8327,45.6763382 L95.5727,46.9098382 C95.8497,47.4521382 95.9947,48.0524382 95.9947,48.6614382 C95.9947,49.2704382 95.8497,49.8708382 95.5727,50.4130382 L92.2917,58.7516382 C91.7017,60.1682382 90.7057,61.3785382 89.4297,62.2301382 L87.7517,63.4636382 C86.5767,64.3724382 85.1417,64.8824382 83.6567,64.9194382 L67.1027,64.9194382 C66.4607,64.9114382 65.8317,65.1114382 65.3117,65.4894382 C64.7917,65.8664382 64.4077,66.4024382 64.2167,67.0164382 L62.6627,71.1854382 C62.4897,71.8104382 62.1107,72.3574382 61.5857,72.7384382 C61.0617,73.1194382 60.4237,73.3114382 59.7757,73.2824382 L51.5117,73.2824382 C51.3247,73.3104382 51.1337,73.2944382 50.9547,73.2364382 C50.7746,73.1794382 50.6105,73.0804382 50.4747,72.9494382 C50.3388,72.8184382 50.2349,72.6584382 50.1708,72.4804382 C50.1068,72.3034382 50.0843,72.1134382 50.1052,71.9254382 C50.058,71.6814382 50.058,71.4294382 50.1052,71.1854382 L56.5687,54.5576382 C56.7417,53.9329382 57.1207,53.3852382 57.6457,53.0043382 C58.1697,52.6233382 58.8077,52.4317382 59.4557,52.4606382 L67.7197,52.4606382 C67.9077,52.4339382 68.0987,52.4499382 68.2797,52.5075382 C68.4607,52.5651382 68.6257,52.6628382 68.7627,52.7933382 C68.9007,52.9238382 69.0067,53.0837382 69.0747,53.2610382 C69.1417,53.4384382 69.1677,53.6286382 69.1507,53.8175382 C69.1497,54.0714382 69.0987,54.3227382 69.0027,54.5576382 L67.3497,58.7516382 C67.3127,58.9969382 67.3127,59.2464382 67.3497,59.4917382 C67.3497,60.3551382 67.8187,60.7745382 68.7557,60.7745382 L77.0447,60.7745382 C77.6847,60.7978382 78.3137,60.6098382 78.8357,60.2397382 C79.3567,59.8696382 79.7427,59.3379382 79.9317,58.7269382 L83.1877,50.3884382 C83.3027,50.1587382 83.3627,49.9051382 83.3607,49.6482382 C83.3607,48.7848382 82.8917,48.3407382 81.9547,48.3407382 L56.6427,48.3407382 C55.7057,48.3407382 55.2367,47.8967382 55.2367,47.0085382 C55.2497,46.6376382 55.3427,46.2738382 55.5087,45.9418382 C55.6747,45.6098382 55.9097,45.3173382 56.1987,45.0843382 C56.7607,44.5336382 57.5097,44.2162382 58.2957,44.1961382 L91.8477,44.1961382 Z"
                id="Path"></path>
            <path
                d="M190.9967,55.4953382 C191.5647,55.4717382 192.1027,55.2337382 192.5017,54.8292382 C192.7227,54.6545382 192.9037,54.4339382 193.0317,54.1826382 C193.1597,53.9314382 193.2307,53.6553382 193.2417,53.3736382 C193.2417,52.7322382 192.8967,52.4115382 192.1807,52.4115382 L185.9887,52.4115382 C185.5127,52.3928382 185.0437,52.5295382 184.6517,52.8009382 C184.2597,53.0724382 183.9677,53.4639382 183.8177,53.9164382 L181.3507,60.1826382 C181.3167,60.3619382 181.3167,60.5460382 181.3507,60.7254382 C181.3507,61.3668382 181.6957,61.7122382 182.4117,61.7122382 L197.9287,61.7122382 C198.6447,61.7122382 198.9897,62.0576382 198.9897,62.7237382 C198.9787,63.0018382 198.9067,63.2742382 198.7787,63.5214382 C198.6507,63.7687382 198.4707,63.9844382 198.2497,64.1544382 C197.8417,64.5604382 197.2957,64.7984382 196.7207,64.8204382 L174.8627,64.8204382 C174.4257,64.8554382 173.9877,64.7734382 173.5927,64.5824382 C173.1977,64.3914382 172.8617,64.0994382 172.6177,63.7351382 L172.0497,62.7977382 C171.8427,62.3931382 171.7337,61.9449382 171.7337,61.4901382 C171.7337,61.0354382 171.8427,60.5871382 172.0497,60.1826382 L174.5167,53.9410382 C174.9757,52.8797382 175.7287,51.9721382 176.6877,51.3260382 L177.9217,50.4132382 C178.8027,49.7207382 179.8847,49.3314382 181.0057,49.3030382 L199.5327,49.3030382 C199.9657,49.2635382 200.4017,49.3466382 200.7897,49.5429382 C201.1777,49.7392382 201.5037,50.0408382 201.7287,50.4132382 L202.2957,51.3260382 C202.5097,51.7330382 202.6217,52.1860382 202.6217,52.6458382 C202.6217,53.1057382 202.5097,53.5587382 202.2957,53.9657382 L201.0867,57.0742382 C200.9547,57.5361382 200.6717,57.9403382 200.2827,58.2221382 C199.8927,58.5039382 199.4207,58.6469382 198.9407,58.6284382 L186.6057,58.6284382 C185.8897,58.6284382 185.5447,58.2830382 185.5447,57.6169382 C185.5467,57.4185382 185.5977,57.2236382 185.6927,57.0495382 C185.8247,56.5876382 186.1077,56.1834382 186.4977,55.9016382 C186.8867,55.6198382 187.3587,55.4767382 187.8387,55.4953382 L190.9967,55.4953382 Z"
                id="Path"></path>
            <path
                d="M222.8707,52.4605382 C221.7657,52.4828382 220.7057,52.9033382 219.8857,53.6447382 L215.3717,57.3945382 C214.4527,58.1405382 213.7397,59.1085382 213.2987,60.2069382 L212.0657,63.2907382 C211.9287,63.7546382 211.6407,64.1594382 211.2477,64.4414382 C210.8537,64.7224382 210.3777,64.8644382 209.8947,64.8454382 L203.7027,64.8454382 C202.9867,64.8454382 202.6417,64.4994382 202.6417,63.8335382 C202.6107,63.6456382 202.6107,63.4539382 202.6417,63.2660382 L206.3177,53.9407382 C206.4117,53.7751382 206.4627,53.5884382 206.4657,53.3979382 C206.4657,52.8799382 206.0957,52.5592382 205.4047,52.4358382 C204.7137,52.3125382 204.3437,51.9671382 204.3437,51.4243382 C204.3217,51.2358382 204.3217,51.0454382 204.3437,50.8569382 C204.4817,50.3953382 204.7707,49.9935382 205.1647,49.7160382 C205.5577,49.4386382 206.0337,49.3017382 206.5147,49.3274382 L215.8397,49.3274382 C215.9787,49.3075382 216.1197,49.3197382 216.2527,49.3631382 C216.3857,49.4065382 216.5077,49.4799382 216.6077,49.5777382 C216.7077,49.6755382 216.7837,49.7950382 216.8307,49.9269382 C216.8777,50.0589382 216.8927,50.1999382 216.8767,50.3388382 C216.9057,50.5186382 216.9057,50.7019382 216.8767,50.8816382 L215.9877,53.2253382 C215.9487,53.3790382 215.9487,53.5403382 215.9877,53.6940382 C215.9877,53.8667382 215.9877,53.9654382 216.1607,53.9654382 C216.4577,53.9019382 216.7317,53.7567382 216.9507,53.5460382 L220.5277,50.5115382 C221.3497,49.7739382 222.4087,49.3540382 223.5127,49.3274382 L225.3877,49.3274382 C226.1027,49.3274382 226.4727,49.6727382 226.4727,50.3388382 C226.4557,50.6218382 226.3787,50.8980382 226.2477,51.1489382 C226.1157,51.3999382 225.9317,51.6199382 225.7087,51.7944382 C225.2847,52.1926382 224.7347,52.4285382 224.1537,52.4605382 L222.8707,52.4605382 Z"
                id="Path"></path>
            <path
                d="M108.4757,64.7214382 C107.5627,64.7214382 107.5627,64.4254382 107.4147,64.2534382 C107.2667,64.0804382 107.1677,63.4882382 107.7357,62.5261382 C107.9627,62.2463382 108.2477,62.0195382 108.5717,61.8618382 C108.8957,61.7042382 109.2507,61.6193382 109.6107,61.6133382 L112.2997,61.6133382 C112.7737,61.6210382 113.2377,61.4767382 113.6247,61.2014382 C114.0107,60.9262382 114.2987,60.5345382 114.4457,60.0837382 L116.9127,53.8175382 C116.9367,53.6373382 116.9367,53.4549382 116.9127,53.2747382 C116.9127,52.6333382 116.5677,52.3126382 115.8517,52.3126382 L109.7337,52.3126382 C109.2577,52.2968382 108.7897,52.4380382 108.4017,52.7144382 C108.0147,52.9908382 107.7277,53.3871382 107.5877,53.8422382 L105.1207,60.1084382 L104.0847,63.1428382 C103.9437,63.6045382 103.6547,64.0074382 103.2627,64.2874382 C102.8697,64.5684382 102.3957,64.7124382 101.9137,64.6974382 L98.6327,64.6974382 C98.1927,64.7294382 97.7527,64.6434382 97.3587,64.4484382 C96.9637,64.2524382 96.6287,63.9554382 96.3877,63.5869382 L95.9187,62.6988382 C95.7167,62.2925382 95.6117,61.8450382 95.6117,61.3913382 C95.6117,60.9375382 95.7167,60.4900382 95.9187,60.0837382 L98.3857,53.8422382 C98.8367,52.7763382 99.5917,51.8668382 100.5567,51.2271382 L101.7897,50.3143382 C102.6717,49.6219382 103.7527,49.2325382 104.8737,49.2042382 L123.5247,49.2042382 C123.9577,49.1646382 124.3937,49.2477382 124.7817,49.4440382 C125.1697,49.6404382 125.4957,49.9419382 125.7207,50.3143382 L126.2627,51.2271382 C126.4897,51.6255382 126.6097,52.0761382 126.6097,52.5346382 C126.6097,52.9932382 126.4897,53.4438382 126.2627,53.8422382 L123.7957,60.0837382 C123.3567,61.1424382 122.6197,62.0508382 121.6747,62.6988382 L120.3917,63.6116382 C119.5187,64.3034382 118.4457,64.6934382 117.3327,64.7214382 L108.4757,64.7214382 Z"
                id="Path"></path>
            <path
                d="M152.6607,60.1332382 C152.5627,60.2975382 152.5117,60.4851382 152.5127,60.6760382 C152.5127,61.3174382 152.8577,61.6381382 153.5727,61.6381382 L156.6077,61.6381382 C157.0857,61.6653382 157.5587,61.5319382 157.9517,61.2592382 C158.3457,60.9866382 158.6367,60.5902382 158.7787,60.1332382 L162.5287,50.8079382 C162.6697,50.3462382 162.9577,49.9438382 163.3507,49.6629382 C163.7427,49.3819382 164.2167,49.2381382 164.6997,49.2537382 L170.8917,49.2537382 C171.6067,49.2537382 171.9527,49.5990382 171.9527,50.2651382 C171.9397,50.4593382 171.8977,50.6505382 171.8287,50.8326382 L168.1777,60.1332382 C167.7167,61.1932382 166.9637,62.1002382 166.0067,62.7483382 L164.7737,63.6611382 C163.8887,64.3474382 162.8087,64.7364382 161.6897,64.7714382 L146.0237,64.7714382 C145.5847,64.8034382 145.1447,64.7174382 144.7507,64.5224382 C144.3557,64.3274382 144.0197,64.0294382 143.7787,63.6611382 L143.6557,63.4637382 C143.6557,63.3157382 143.5077,63.0937382 143.3847,63.0937382 C143.2607,63.0937382 142.9157,63.2664382 142.5457,63.6117382 C141.7357,64.3314382 140.6937,64.7354382 139.6097,64.7464382 L130.4567,64.7464382 C130.0177,64.7784382 129.5777,64.6924382 129.1837,64.4974382 C128.7887,64.3024382 128.4537,64.0054382 128.2117,63.6364382 L127.6697,62.7236382 C127.4667,62.3131382 127.3617,61.8615382 127.3617,61.4038382 C127.3617,60.9460382 127.4667,60.4944382 127.6697,60.0839382 L130.1367,53.8423382 C130.2307,53.6767382 130.2817,53.4901382 130.2847,53.2996382 C130.2847,52.6582382 129.9387,52.3374382 129.2237,52.3374382 C128.5087,52.3374382 128.1627,51.9921382 128.1627,51.3260382 C128.1257,51.1470382 128.1257,50.9622382 128.1627,50.7832382 C128.2917,50.3125382 128.5767,49.8995382 128.9707,49.6125382 C129.3657,49.3255382 129.8467,49.1815382 130.3337,49.2043382 L136.5257,49.2043382 C136.9657,49.1721382 137.4047,49.2581382 137.7997,49.4533382 C138.1947,49.6486382 138.5297,49.9459382 138.7707,50.3145382 L139.3387,51.2273382 C139.5467,51.6318382 139.6547,52.0800382 139.6547,52.5348382 C139.6547,52.9896382 139.5467,53.4378382 139.3387,53.8423382 L136.8717,60.0839382 C136.7777,60.2495382 136.7267,60.4362382 136.7237,60.6266382 C136.7237,61.2681382 137.0687,61.5888382 137.7847,61.5888382 L138.4257,61.5888382 L140.8927,61.5888382 C141.3687,61.6046382 141.8367,61.4634382 142.2247,61.1870382 C142.6127,60.9106382 142.8987,60.5143382 143.0387,60.0592382 L146.9367,50.8079382 C147.0687,50.3460382 147.3527,49.9418382 147.7417,49.6600382 C148.1307,49.3782382 148.6027,49.2351382 149.0837,49.2537382 L155.2997,49.2537382 C155.4397,49.2346382 155.5817,49.2472382 155.7157,49.2905382 C155.8497,49.3339382 155.9717,49.4068382 156.0737,49.5040382 C156.1757,49.6012382 156.2547,49.7201382 156.3047,49.8518382 C156.3537,49.9836382 156.3737,50.1249382 156.3607,50.2651382 C156.3527,50.4548382 156.3017,50.6402382 156.2127,50.8079382 L152.6607,60.1332382 Z"
                id="Path"></path>
            <path
                d="M0.0493,26.4339382 L0.0493,26.3105382 C0.0493,26.3105382 4.638,7.95593825 28.9628,1.27023825 C53.2877,-5.41536175 77.1187,16.4671382 77.1187,16.4671382 C77.1187,16.4671382 57.1857,1.19623825 37.6468,7.48713825 C20.8957,12.8406382 16.5784,24.4849382 16.5784,24.4849382 L16.159,25.7431382 C15.9611,26.6038382 15.4619,27.3654382 14.7516,27.8902382 C14.0412,28.4150382 13.1666,28.6685382 12.2858,28.6049382 L1.8009,28.6049382 C0.5921,28.6049382 7.10542736e-15,28.0374382 7.10542736e-15,26.9026382 L0.0493,26.4339382 Z"
                id="Path"></path>
            <path
                d="M234.8607,68.7924382 L234.8607,68.9154382 C234.8607,68.9154382 225.8067,86.8754382 200.6677,88.3314382 C175.5287,89.7864382 154.9287,66.1274382 154.9287,66.1274382 C154.9287,66.1274382 173.0867,82.4344382 193.6117,80.4124382 C211.1037,78.6854382 217.7647,68.0764382 217.7647,68.0764382 L218.0357,67.7314382 C218.4227,67.0144382 219.0387,66.4484382 219.7857,66.1214382 C220.5317,65.7954382 221.3667,65.7284382 222.1557,65.9304382 L233.6517,65.9304382 C233.8927,65.9414382 234.1277,66.0074382 234.3387,66.1244382 C234.5487,66.2404382 234.7297,66.4044382 234.8657,66.6034382 C235.0027,66.8024382 235.0907,67.0294382 235.1237,67.2684382 C235.1577,67.5064382 235.1347,67.7494382 235.0577,67.9784382 L234.8607,68.7924382 Z"
                id="Path"></path>
            <path
                d="M128.1877,19.9453382 C128.1697,20.1010382 128.1697,20.2583382 128.1877,20.4140382 C128.1877,21.0061382 128.5087,21.3022382 129.1257,21.3022382 L134.5777,21.3022382 C135.0007,21.3241382 135.4197,21.2019382 135.7647,20.9554382 C136.1097,20.7090382 136.3607,20.3529382 136.4777,19.9453382 L136.7237,19.2545382 C136.9097,18.9007382 137.0067,18.5070382 137.0067,18.1074382 C137.0067,17.7077382 136.9097,17.3140382 136.7237,16.9602382 L136.2307,16.1461382 C136.0187,15.8229382 135.7237,15.5629382 135.3757,15.3935382 C135.0287,15.2242382 134.6417,15.1518382 134.2567,15.1839382 L131.3947,15.1839382 C130.9757,15.1677382 130.5637,15.2926382 130.2237,15.5385382 C129.8837,15.7845382 129.6357,16.1375382 129.5207,16.5408382 L128.1877,19.9453382 Z"
                id="Path"></path>
            <path
                d="M104.8737,14.7642382 C105.5647,14.7642382 105.9097,15.0849382 105.9097,15.7510382 C105.8877,15.9277382 105.8467,16.1014382 105.7867,16.2691382 L103.0487,23.2508382 C103.0207,23.4307382 103.0207,23.6136382 103.0487,23.7935382 C103.0317,23.9325382 103.0477,24.0734382 103.0937,24.2054382 C103.1407,24.3374382 103.2167,24.4569382 103.3167,24.5547382 C103.4167,24.6524382 103.5387,24.7259382 103.6717,24.7693382 C103.8047,24.8127382 103.9457,24.8249382 104.0847,24.8050382 L116.4197,24.8050382 C116.8567,24.7702382 117.2947,24.8524382 117.6897,25.0432382 C118.0837,25.2340382 118.4207,25.5265382 118.6647,25.8905382 L119.2077,26.8033382 C119.3897,27.1890382 119.4837,27.6102382 119.4837,28.0368382 C119.4837,28.4634382 119.3897,28.8847382 119.2077,29.2703382 L116.7407,35.4379382 C116.6917,35.6156382 116.6917,35.8029382 116.7407,35.9806382 C116.7407,36.4740382 117.0607,36.7947382 117.7767,36.9181382 C118.4917,37.0415382 118.8127,37.3868382 118.8127,37.9296382 C118.7987,38.2071382 118.7247,38.4783382 118.5977,38.7251382 C118.4697,38.9718382 118.2907,39.1885382 118.0727,39.3605382 C117.6747,39.7483382 117.1477,39.9766382 116.5917,40.0019382 L110.2767,40.0019382 C109.8437,40.0322382 109.4107,39.9478382 109.0207,39.7572382 C108.6307,39.5666382 108.2987,39.2766382 108.0567,38.9164382 L107.5137,38.0036382 C107.3097,37.6022382 107.2037,37.1585382 107.2037,36.7084382 C107.2037,36.2583382 107.3097,35.8146382 107.5137,35.4132382 L109.9807,29.2703382 C110.0757,29.0962382 110.1267,28.9013382 110.1287,28.7029382 C110.1287,28.0862382 109.7837,27.7654382 109.0677,27.7654382 L102.8257,27.7654382 C102.3577,27.7543382 101.8987,27.8915382 101.5127,28.1573382 C101.1277,28.4232382 100.8357,28.8041382 100.6797,29.2457382 L97.1027,38.4477382 C96.9707,38.9030382 96.6897,39.3010382 96.3057,39.5782382 C95.9207,39.8555382 95.4547,39.9959382 94.9807,39.9772382 L88.8377,39.9772382 C88.6997,39.9971382 88.5587,39.9849382 88.4257,39.9415382 C88.2927,39.8981382 88.1707,39.8246382 88.0707,39.7269382 C87.9707,39.6291382 87.8947,39.5096382 87.8477,39.3776382 C87.8007,39.2456382 87.7857,39.1047382 87.8017,38.9657382 C87.7727,38.7860382 87.7727,38.6027382 87.8017,38.4230382 L95.2027,19.1802382 C95.2767,19.0082382 95.3187,18.8243382 95.3267,18.6374382 C95.3267,18.1111382 94.9807,17.7904382 94.2907,17.6753382 C93.5997,17.5520382 93.2537,17.2312382 93.2537,16.6885382 C93.2667,16.4133382 93.3367,16.1438382 93.4607,15.8973382 C93.5837,15.6509382 93.7567,15.4330382 93.9697,15.2576382 C94.3687,14.8531382 94.9067,14.6151382 95.4747,14.5915382 L104.8737,14.7642382 Z"
                id="Path"></path>
            <path
                d="M132.9237,38.0777382 C132.9107,38.3529382 132.8407,38.6225382 132.7177,38.8689382 C132.5947,39.1153382 132.4207,39.3332382 132.2087,39.5086382 C131.7937,39.9204382 131.2377,40.1586382 130.6537,40.1747382 L121.5017,40.1747382 C120.8107,40.1747382 120.4657,39.8540382 120.4657,39.1879382 C120.4337,39.0083382 120.4337,38.8247382 120.4657,38.6451382 L124.0917,29.4185382 C124.1287,29.2395382 124.1287,29.0547382 124.0917,28.8757382 C124.0917,28.3576382 123.7467,28.0616382 123.0557,27.9382382 C122.3647,27.8149382 121.9947,27.4695382 121.9947,26.9268382 C122.0057,26.6486382 122.0777,26.3763382 122.2057,26.1290382 C122.3337,25.8817382 122.5147,25.6656382 122.7347,25.4959382 C123.1397,25.0881382 123.6897,24.8574382 124.2647,24.8545382 L133.4177,24.8545382 C134.1327,24.8545382 134.4777,25.1998382 134.4777,25.8413382 C134.4977,26.0299382 134.4977,26.2201382 134.4777,26.4087382 L130.9507,35.5860382 C130.9147,35.7652382 130.9147,35.9496382 130.9507,36.1288382 C130.9507,36.7702382 131.2957,37.0909382 131.9867,37.0909382 C132.6767,37.0909382 133.0227,37.4116382 133.0227,38.0777382"
                id="Path"></path>
            <path
                d="M163.0467,27.9631382 L150.7117,27.9631382 C150.1427,27.9817382 149.6027,28.2205382 149.2067,28.6292382 C148.9877,28.7990382 148.8097,29.0157382 148.6857,29.2634382 C148.5627,29.5110382 148.4957,29.7833382 148.4907,30.0601382 C148.4907,30.6769382 148.8367,30.9976382 149.5277,30.9976382 L158.7047,30.9976382 C159.1337,30.9717382 159.5617,31.0582382 159.9467,31.2486382 C160.3317,31.4390382 160.6607,31.7266382 160.8997,32.0831382 L161.4427,32.9959382 C161.6627,33.3965382 161.7787,33.8462382 161.7787,34.3034382 C161.7787,34.7606382 161.6627,35.2103382 161.4427,35.6109382 C161.0207,36.6585382 160.2997,37.5592382 159.3707,38.2013382 L158.0877,39.1141382 C157.2397,39.7777382 156.2037,40.1574382 155.1277,40.1996382 L136.7977,40.1996382 C136.1067,40.1996382 135.7617,39.8789382 135.7617,39.2128382 C135.7717,38.9346382 135.8437,38.6623382 135.9717,38.4150382 C136.0997,38.1677382 136.2807,37.9516382 136.5017,37.7819382 C136.6937,37.5825382 136.9237,37.4232382 137.1777,37.3131382 C137.4317,37.2031382 137.7047,37.1444382 137.9817,37.1405382 L150.3167,37.1405382 C150.8937,37.1152382 151.4437,36.8882382 151.8707,36.4990382 C152.0837,36.3189382 152.2577,36.0966382 152.3807,35.8461382 C152.5037,35.5956382 152.5737,35.3223382 152.5867,35.0435382 C152.5867,34.4267382 152.2407,34.1060382 151.5497,34.1060382 L142.2497,34.1060382 C141.8197,34.1467382 141.3867,34.0639382 141.0027,33.8672382 C140.6177,33.6706382 140.2977,33.3683382 140.0787,32.9959382 L139.5357,32.1077382 C139.3157,31.7027382 139.1997,31.2489382 139.1997,30.7879382 C139.1997,30.3268382 139.3157,29.8731382 139.5357,29.4680382 C139.9737,28.4223382 140.7007,27.5235382 141.6327,26.8776382 L142.8907,25.9895382 C143.7577,25.3081382 144.8227,24.9271382 145.9257,24.9040382 L164.2797,24.9040382 C164.9707,24.9040382 165.3407,25.2247382 165.3407,25.8908382 C165.3577,26.0713382 165.3577,26.2531382 165.3407,26.4336382 C165.2007,26.8887382 164.9137,27.2849382 164.5267,27.5613382 C164.1387,27.8377382 163.6707,27.9789382 163.1947,27.9631382"
                id="Path"></path>
            <path
                d="M195.1677,24.9288382 C195.6047,24.8940382 196.0427,24.9762382 196.4377,25.1670382 C196.8317,25.3578382 197.1687,25.6503382 197.4127,26.0143382 L197.9557,26.9271382 C198.1407,27.3118382 198.2377,27.7334382 198.2377,28.1606382 C198.2377,28.5878382 198.1407,29.0094382 197.9557,29.3941382 L195.4887,35.5617382 C195.0277,36.5752382 194.2817,37.4326382 193.3417,38.0287382 L192.1327,38.9415382 C191.2717,39.6328382 190.2027,40.0150382 189.0987,40.0270382 L176.7637,40.0270382 C176.2907,40.0125382 175.8267,40.1547382 175.4427,40.4313382 C175.0587,40.7079382 174.7777,41.1035382 174.6417,41.5565382 L173.5567,44.1963382 C173.4207,44.6494382 173.1387,45.0450382 172.7557,45.3216382 C172.3717,45.5982382 171.9077,45.7403382 171.4347,45.7258382 L165.4647,45.7258382 C165.3257,45.7457382 165.1847,45.7335382 165.0517,45.6901382 C164.9187,45.6467382 164.7977,45.5732382 164.6977,45.4755382 C164.5967,45.3777382 164.5207,45.2582382 164.4737,45.1262382 C164.4277,44.9943382 164.41145,44.8533382 164.4287,44.7143382 C164.4057,44.5341382 164.4057,44.3518382 164.4287,44.1716382 L169.1407,32.3545382 C169.2717,31.8969382 169.5517,31.4958382 169.9357,31.2144382 C170.3197,30.9330382 170.7857,30.7874382 171.2617,30.8003382 L177.3807,30.8003382 C178.0957,30.8003382 178.4167,31.1210382 178.4167,31.7871382 C178.4407,31.9672382 178.4407,32.1498382 178.4167,32.3299382 L177.1827,35.4137382 C177.1477,35.6011382 177.1477,35.7936382 177.1827,35.9811382 C177.1827,36.6225382 177.5287,36.9185382 178.2437,36.9185382 L184.2387,36.9185382 C184.7117,36.9359382 185.1767,36.7983382 185.5647,36.5266382 C185.9517,36.2549382 186.2397,35.8641382 186.3847,35.4137382 L188.8517,29.2214382 C188.8857,29.0504382 188.8857,28.8744382 188.8517,28.7034382 C188.8517,28.0619382 188.5067,27.7412382 187.8157,27.7412382 L169.4857,27.7412382 C168.7947,27.7412382 168.4497,27.4205382 168.4497,26.7544382 C168.4627,26.4792382 168.5327,26.2097382 168.6557,25.9632382 C168.7787,25.7168382 168.9527,25.4989382 169.1647,25.3235382 C169.5917,24.9343382 170.1417,24.7073382 170.7197,24.6821382 L195.1677,24.9288382 Z"
                id="Path"></path>
            <path
                d="M218.2337,31.0720382 C218.7897,31.0513382 219.3187,30.8224382 219.7137,30.4306382 C219.9347,30.2609382 220.1157,30.0447382 220.2427,29.7975382 C220.3707,29.5502382 220.4427,29.2778382 220.4537,28.9997382 C220.4537,28.3583382 220.1087,28.0375382 219.3937,28.0375382 L213.2747,28.0375382 C212.8087,28.0200382 212.3487,28.1550382 211.9657,28.4221382 C211.5837,28.6892382 211.2977,29.0739382 211.1537,29.5178382 L208.6867,35.7100382 C208.6527,35.8893382 208.6527,36.0734382 208.6867,36.2527382 C208.6867,36.8942382 209.0317,37.2149382 209.7227,37.2149382 L225.0427,37.2149382 C225.1817,37.1950382 225.3227,37.2072382 225.4557,37.2506382 C225.5887,37.2940382 225.7097,37.3675382 225.8097,37.4652382 C225.9107,37.5630382 225.9867,37.6825382 226.0327,37.8145382 C226.0797,37.9464382 226.0957,38.0874382 226.0787,38.2264382 C226.0657,38.4980382 225.9947,38.7638382 225.8717,39.0062382 C225.7487,39.2485382 225.5757,39.4620382 225.3637,39.6326382 C224.9637,40.0371382 224.4267,40.2751382 223.8587,40.2987382 L202.4197,40.2987382 C201.9847,40.3263382 201.5497,40.2382382 201.1597,40.0432382 C200.7697,39.8482382 200.4387,39.5533382 200.1997,39.1885382 L199.6567,38.3004382 C199.4537,37.8990382 199.3467,37.4553382 199.3467,37.0052382 C199.3467,36.5551382 199.4537,36.1113382 199.6567,35.7100382 L202.1237,29.5424382 C202.5847,28.5289382 203.3307,27.6715382 204.2707,27.0754382 L205.4797,26.1626382 C206.3537,25.4977382 207.4157,25.1264382 208.5137,25.1018382 L226.6707,25.1018382 C227.0977,25.0645382 227.5267,25.1462382 227.9097,25.3378382 C228.2927,25.5294382 228.6157,25.8235382 228.8417,26.1873382 L229.3847,27.1001382 C229.6047,27.4962382 229.7207,27.9420382 229.7207,28.3953382 C229.7207,28.8485382 229.6047,29.2943382 229.3847,29.6905382 L228.2007,32.7742382 C228.0647,33.2273382 227.7837,33.6229382 227.3997,33.8995382 C227.0157,34.1761382 226.5517,34.3182382 226.0787,34.3038382 L213.7437,34.3038382 C213.6047,34.3237382 213.4637,34.3115382 213.3307,34.2680382 C213.1977,34.2246382 213.0767,34.1512382 212.9767,34.0534382 C212.8757,33.9557382 212.7997,33.8362382 212.7537,33.7042382 C212.7067,33.5722382 212.6907,33.4313382 212.7077,33.2923382 C212.6737,33.1130382 212.6737,32.9289382 212.7077,32.7496382 C212.8397,32.2877382 213.1227,31.8834382 213.5127,31.6017382 C213.9017,31.3199382 214.3737,31.1768382 214.8537,31.1953382 L218.2337,31.0720382 Z"
                id="Path"></path>
            <path
                d="M249.8847,28.0618382 C248.8007,28.0911382 247.7607,28.5016382 246.9487,29.2213382 L242.5087,32.9465382 C241.5927,33.6699382 240.8867,34.6235382 240.4607,35.7096382 L239.2277,38.7440382 C239.0957,39.1993382 238.8147,39.5974382 238.4297,39.8746382 C238.0457,40.1518382 237.5797,40.2923382 237.1057,40.2736382 L230.9877,40.2736382 C230.2717,40.2736382 229.9267,39.9528382 229.9517,39.2868382 C229.9167,39.1075382 229.9167,38.9233382 229.9517,38.7440382 L233.5777,29.5420382 C233.6687,29.3752382 233.7197,29.1893382 233.7257,28.9993382 C233.7257,28.4730382 233.3807,28.1522382 232.6897,28.0371382 C231.9987,27.9138382 231.6287,27.5931382 231.6537,27.0503382 C231.6277,26.8703382 231.6277,26.6876382 231.6537,26.5076382 C231.7867,26.0480382 232.0707,25.6468382 232.4607,25.3691382 C232.8497,25.0914382 233.3217,24.9536382 233.7997,24.9780382 L242.9767,24.9780382 C243.6677,24.9780382 244.0377,25.2987382 244.0377,25.9648382 C244.0317,26.1549382 243.9817,26.3408382 243.8897,26.5076382 L243.0267,28.8266382 C242.9987,28.9733382 242.9987,29.1239382 243.0267,29.2706382 C243.0267,29.4680382 243.0267,29.5420382 243.1987,29.5420382 C243.4897,29.4952382 243.7577,29.3569382 243.9637,29.1473382 L247.5407,26.1375382 C248.3447,25.4014382 249.3877,24.9808382 250.4767,24.9533382 L252.3267,24.9533382 C253.0177,24.9533382 253.3877,25.2987382 253.3877,25.9648382 C253.3737,26.2450382 253.2987,26.5186382 253.1657,26.7660382 C253.0337,27.0134382 252.8487,27.2285382 252.6227,27.3957382 C252.2157,27.7852382 251.6807,28.0132382 251.1187,28.0371382 L249.8847,28.0618382 Z"
                id="Path"></path>
            <path
                d="M64.1427,33.3417382 C64.0077,33.5826382 63.9397,33.8551382 63.9457,34.1311382 C63.9457,35.0439382 64.4387,35.4880382 65.4257,35.4880382 L69.8417,35.4880382 C70.5127,35.5160382 71.1747,35.3239382 71.7277,34.9409382 C72.2797,34.5579382 72.6917,34.0050382 72.9007,33.3664382 L78.0817,20.1924382 C78.2727,19.5420382 78.6737,18.9734382 79.2237,18.5759382 C79.7727,18.1785382 80.4387,17.9748382 81.1157,17.9968382 L89.8737,17.9968382 C90.8857,17.9968382 91.3787,18.4655382 91.3787,19.4277382 C91.3627,19.6930382 91.2957,19.9527382 91.1817,20.1924382 L86.0497,33.3664382 C85.4057,34.8604382 84.3547,36.1429382 83.0157,37.0669382 L81.2637,38.3497382 C80.0137,39.3111382 78.4977,39.8626382 76.9217,39.9286382 L54.8917,39.9286382 C54.2797,39.9915382 53.6617,39.8897382 53.1017,39.6338382 C52.5427,39.3779382 52.0617,38.9772382 51.7087,38.4731382 L51.5117,38.0784382 C51.5117,37.8810382 51.2897,37.5603382 51.1167,37.5603382 C50.9437,37.5603382 50.4507,37.8070382 49.9326,38.3004382 C48.7852,39.3098382 47.3161,39.8782382 45.788,39.9040382 L33.0335,39.9040382 C32.4108,39.9458382 31.7881,39.8217382 31.229,39.5444382 C30.6699,39.2670382 30.1945,38.8462382 29.8511,38.3251382 L29.0863,37.0422382 C28.7977,36.4681382 28.6474,35.8345382 28.6474,35.1920382 C28.6474,34.5494382 28.7977,33.9158382 29.0863,33.3417382 L32.5401,24.5097382 C32.6629,24.2642382 32.7303,23.9947382 32.7375,23.7203382 C32.7375,22.8322382 32.2441,22.3634382 31.2573,22.3634382 C30.2705,22.3634382 29.7524,21.8947382 29.7524,20.9326382 C29.7574,20.6731382 29.7989,20.4156382 29.8757,20.1678382 C30.0715,19.5153382 30.4778,18.9460382 31.0313,18.5488382 C31.5847,18.1516382 32.254,17.9488382 32.9348,17.9721382 L41.6434,17.9721382 C42.2648,17.9198382 42.8887,18.0366382 43.449,18.3103382 C44.0094,18.5839382 44.4851,19.0041382 44.8259,19.5264382 L45.6153,20.8339382 C45.9039,21.4080382 46.0542,22.0416382 46.0542,22.6841382 C46.0542,23.3267382 45.9039,23.9603382 45.6153,24.5344382 L42.1615,33.3417382 C42.0387,33.5872382 41.9714,33.8567382 41.9642,34.1311382 C41.9642,35.0439382 42.4576,35.4880382 43.469,35.4880382 L44.3818,35.4880382 L47.8603,35.4880382 C48.5335,35.5244382 49.1996,35.3356382 49.7535,34.9514382 C50.3074,34.5672382 50.7176,34.0096382 50.9197,33.3664382 L56.1247,20.1924382 C56.3207,19.5400382 56.7267,18.9707382 57.2807,18.5735382 C57.8337,18.1763382 58.5027,17.9735382 59.1837,17.9968382 L67.9417,17.9968382 C68.9287,17.9968382 69.4217,18.4902382 69.4217,19.4277382 C69.4197,19.7027382 69.3517,19.9731382 69.2247,20.2171382 L64.1427,33.3417382 Z"
                id="Path"></path>
        </g>
    </g>
</svg>